<svg width="23" height="23" viewBox="0 0 23 23" fill="none" xmlns="http://www.w3.org/2000/svg">
<path fill-rule="evenodd" clip-rule="evenodd" d="M11.5 0C5.14887 0 0 5.14887 0 11.5C0 17.8511 5.14887 23 11.5 23C17.8511 23 23 17.8511 23 11.5C23 5.14887 17.8511 0 11.5 0ZM11.5 1.04547C17.2646 1.04547 21.9545 5.73537 21.9545 11.5C21.9545 13.8282 21.1799 15.9745 19.8877 17.7142C18.3791 15.3128 15.961 13.6996 13.1926 13.2271C14.6573 12.5768 15.6818 11.1142 15.6818 9.4091C15.6818 7.09966 13.8094 5.22726 11.5 5.22726C9.19061 5.22726 7.31816 7.09966 7.31816 9.4091C7.31816 11.1142 8.34274 12.5758 9.80739 13.2271C7.03903 13.6996 4.6209 15.3128 3.11234 17.7142C1.82013 15.9745 1.04547 13.8282 1.04547 11.5C1.04547 5.73537 5.73537 1.04547 11.5 1.04547ZM8.36363 9.40911C8.36363 7.67989 9.77084 6.27274 11.5 6.27274C13.2292 6.27274 14.6364 7.67989 14.6364 9.40911C14.6364 11.1383 13.2292 12.5455 11.5 12.5455C9.77084 12.5455 8.36363 11.1383 8.36363 9.40911ZM11.5 21.9545C8.46189 21.9545 5.73116 20.6446 3.8201 18.5683C5.4071 15.8156 8.28939 14.1136 11.5 14.1136C14.7106 14.1136 17.5929 15.8156 19.1799 18.5683C17.2688 20.6446 14.5381 21.9545 11.5 21.9545Z" fill="black"/>
</svg>
