<svg width="19" height="23" viewBox="0 0 19 23" fill="none" xmlns="http://www.w3.org/2000/svg">
<path fill-rule="evenodd" clip-rule="evenodd" d="M17.4479 10.7126C17.4479 10.722 17.4429 10.7316 17.4429 10.7412C17.438 10.7655 17.4231 10.8377 17.3984 10.9485V10.9581C17.2746 11.4977 17.0913 12.0226 16.8486 12.5283C16.8438 12.5332 16.8438 12.5428 16.8387 12.5475C15.913 14.6815 13.883 17.9377 9.46664 21.4875C5.05029 17.9377 3.02026 14.6815 2.09433 12.5475C2.0895 12.5428 2.0895 12.5332 2.08443 12.5283C1.84678 12.0276 1.66352 11.4977 1.53492 10.9581V10.9485C1.50515 10.8377 1.49524 10.7655 1.49017 10.7412C1.49017 10.7316 1.48534 10.722 1.48534 10.7076C1.3862 10.2116 1.33693 9.71064 1.33693 9.20476C1.33693 4.84565 4.98574 1.29571 9.46664 1.29571C13.9473 1.29571 17.5964 4.84565 17.5964 9.20476C17.5964 9.71533 17.5468 10.2213 17.4479 10.7126ZM9.46664 0C4.24814 0 0 4.13284 0 9.20969C0 9.78758 0.0544007 10.3704 0.168277 10.9388C0.173352 10.9724 0.193156 11.0738 0.232827 11.2472C0.376163 11.8685 0.589186 12.4803 0.86645 13.0631C1.88638 15.3993 4.12919 18.9876 9.05056 22.8314C9.17434 22.9278 9.32306 22.976 9.47147 22.976C9.62013 22.976 9.7686 22.9278 9.89238 22.8314C14.8089 18.9876 17.0568 15.3993 18.0765 13.0631C18.3538 12.4803 18.5668 11.8732 18.7104 11.2472C18.75 11.0738 18.7698 10.9724 18.7747 10.9388C18.8837 10.3704 18.9429 9.78758 18.9429 9.20969C18.9333 4.13284 14.6851 0 9.46664 0Z" fill="#231F20"/>
</svg>
