<svg width="28" height="23" viewBox="0 0 28 23" fill="none" xmlns="http://www.w3.org/2000/svg">
<path fill-rule="evenodd" clip-rule="evenodd" d="M5.30909 18.1091L4.50909 20.8364L7.05455 18.9091C7.2 18.7273 7.45455 18.6545 7.67273 18.7636C9.63636 19.6 11.8182 20 14.0727 20C21.2 20 26.9818 15.7455 26.9818 10.5455C26.9818 5.34545 21.2 1.09091 14.0727 1.09091C6.94545 1.09091 1.16364 5.34545 1.16364 10.5455C1.16364 13.1636 2.58182 15.5636 5.16364 17.3818C5.34545 17.5636 5.41818 17.8545 5.30909 18.1091ZM3.49091 22.8364C3.38182 22.8364 3.27273 22.8 3.16364 22.7273C2.98182 22.5818 2.87273 22.3636 2.94545 22.1091L4.14545 18.0364C1.52727 16.0727 0 13.3455 0 10.5455C0 4.72727 6.29091 0 14 0C21.7091 0 28 4.72727 28 10.5455C28 16.3636 21.7091 21.0909 14 21.0909C11.7455 21.0909 9.49091 20.6909 7.49091 19.8909L3.81818 22.6909C3.70909 22.8 3.6 22.8364 3.49091 22.8364Z" fill="black"/>
</svg>
